<svg width="82" height="18" viewBox="0 0 82 18" fill="none" xmlns="http://www.w3.org/2000/svg">
<path d="M23.7141 13.04C23.5941 13.04 23.4874 13 23.3941 12.92C23.3007 12.84 23.2407 12.7333 23.2141 12.6C23.1207 11.84 23.0007 10.98 22.8541 10.02C22.7074 9.06 22.5474 8.06667 22.3741 7.04C22.2007 6.01333 22.0207 5.02 21.8341 4.06C21.3941 4.95333 20.9407 5.88667 20.4741 6.86C20.0207 7.82 19.5874 8.76667 19.1741 9.7C18.7607 10.6333 18.3874 11.5067 18.0541 12.32C17.9607 12.5467 17.8141 12.66 17.6141 12.66C17.3741 12.66 17.2141 12.5667 17.1341 12.38C16.7474 11.5533 16.3207 10.66 15.8541 9.7C15.3874 8.72667 14.9207 7.75333 14.4541 6.78C14.0007 5.80667 13.5741 4.90667 13.1741 4.08C13.0674 4.78667 12.9541 5.53333 12.8341 6.32C12.7274 7.10667 12.6207 7.88667 12.5141 8.66C12.4207 9.43333 12.3274 10.16 12.2341 10.84C12.1541 11.52 12.0874 12.1067 12.0341 12.6C12.0207 12.72 11.9607 12.8267 11.8541 12.92C11.7607 13 11.6474 13.04 11.5141 13.04C11.3807 13.04 11.2674 12.9933 11.1741 12.9C11.0807 12.7933 11.0341 12.6667 11.0341 12.52C11.0341 12.4933 11.0541 12.3 11.0941 11.94C11.1474 11.5 11.2207 10.9 11.3141 10.14C11.4074 9.38 11.5141 8.55333 11.6341 7.66C11.7541 6.75333 11.8807 5.85333 12.0141 4.96C12.1474 4.06667 12.2741 3.26 12.3941 2.54C12.4207 2.42 12.4807 2.32 12.5741 2.24C12.6807 2.16 12.7941 2.12 12.9141 2.12C13.0741 2.12 13.1941 2.17333 13.2741 2.28C13.4074 2.41333 13.5141 2.57333 13.5941 2.76C13.9674 3.50667 14.3741 4.34667 14.8141 5.28C15.2674 6.2 15.7341 7.14667 16.2141 8.12C16.6941 9.09333 17.1474 10.0267 17.5741 10.92C17.9607 10.04 18.3741 9.10667 18.8141 8.12C19.2674 7.12 19.7274 6.12667 20.1941 5.14C20.6741 4.14 21.1407 3.21333 21.5941 2.36C21.7007 2.18667 21.8541 2.1 22.0541 2.1C22.1741 2.1 22.2874 2.14 22.3941 2.22C22.5007 2.28667 22.5607 2.38 22.5741 2.5C22.7341 3.28667 22.8874 4.12667 23.0341 5.02C23.1941 5.9 23.3407 6.74667 23.4741 7.56C23.6074 8.37333 23.7141 9.08667 23.7941 9.7C23.8874 10.3 23.9541 10.7133 23.9941 10.94C24.1007 11.5933 24.1607 12.0133 24.1741 12.2C24.2007 12.3867 24.2141 12.5 24.2141 12.54C24.2141 12.6733 24.1674 12.7933 24.0741 12.9C23.9807 12.9933 23.8607 13.04 23.7141 13.04ZM28.3003 13C28.167 13 28.047 12.9533 27.9403 12.86C27.847 12.7533 27.8003 12.6333 27.8003 12.5V2.8C27.8003 2.66667 27.8403 2.55333 27.9203 2.46C28.0136 2.35333 28.1203 2.3 28.2403 2.3H33.8403C33.987 2.3 34.107 2.34667 34.2003 2.44C34.2936 2.53333 34.3403 2.65333 34.3403 2.8C34.3403 2.93333 34.2936 3.05333 34.2003 3.16C34.107 3.25333 33.987 3.3 33.8403 3.3H28.8003V6.78H32.9803C33.127 6.78 33.247 6.82667 33.3403 6.92C33.4336 7.01333 33.4803 7.13333 33.4803 7.28C33.4803 7.41333 33.4336 7.53333 33.3403 7.64C33.247 7.73333 33.127 7.78 32.9803 7.78H28.8003V12H33.8803C34.027 12 34.147 12.0467 34.2403 12.14C34.3336 12.2333 34.3803 12.3533 34.3803 12.5C34.3803 12.6333 34.3336 12.7533 34.2403 12.86C34.147 12.9533 34.027 13 33.8803 13H28.3003ZM45.3064 12.8C44.8531 12.1867 44.3264 11.5 43.7264 10.74C43.1397 9.98 42.5331 9.20667 41.9064 8.42C41.2797 7.62 40.6731 6.84667 40.0864 6.1C39.5131 5.35333 38.9997 4.69333 38.5464 4.12V12.5C38.5464 12.6333 38.4997 12.7533 38.4064 12.86C38.3131 12.9533 38.1931 13 38.0464 13C37.9131 13 37.7931 12.9533 37.6864 12.86C37.5931 12.7533 37.5464 12.6333 37.5464 12.5V2.8C37.5464 2.65333 37.5931 2.53333 37.6864 2.44C37.7931 2.34667 37.9064 2.3 38.0264 2.3C38.2931 2.3 38.4731 2.36667 38.5664 2.5C38.8997 2.94 39.3331 3.50667 39.8664 4.2C40.3997 4.88 40.9797 5.62667 41.6064 6.44C42.2464 7.24 42.8864 8.05333 43.5264 8.88C44.1797 9.69333 44.7797 10.46 45.3264 11.18V2.8C45.3264 2.65333 45.3731 2.53333 45.4664 2.44C45.5731 2.34667 45.6931 2.3 45.8264 2.3C45.9731 2.3 46.0931 2.34667 46.1864 2.44C46.2797 2.53333 46.3264 2.65333 46.3264 2.8V12.5C46.3264 12.6333 46.2797 12.7533 46.1864 12.86C46.0931 12.9533 45.9797 13 45.8464 13C45.5797 13 45.3997 12.9333 45.3064 12.8ZM51.0017 8.72C51.0017 9.82667 51.3151 10.68 51.9417 11.28C52.5817 11.88 53.4017 12.18 54.4017 12.18C55.5084 12.18 56.3617 11.88 56.9617 11.28C57.5751 10.6667 57.8817 9.79333 57.8817 8.66V2.8C57.8817 2.65333 57.9284 2.53333 58.0217 2.44C58.1284 2.34667 58.2484 2.3 58.3817 2.3C58.5284 2.3 58.6484 2.34667 58.7417 2.44C58.8351 2.53333 58.8817 2.65333 58.8817 2.8V8.66C58.8817 10.1133 58.4884 11.2333 57.7017 12.02C56.9284 12.7933 55.8284 13.18 54.4017 13.18C53.1084 13.18 52.0484 12.7933 51.2217 12.02C50.4084 11.2467 50.0017 10.1467 50.0017 8.72V2.8C50.0017 2.65333 50.0484 2.53333 50.1417 2.44C50.2484 2.34667 50.3684 2.3 50.5017 2.3C50.6484 2.3 50.7684 2.34667 50.8617 2.44C50.9551 2.53333 51.0017 2.65333 51.0017 2.8V8.72Z" fill="white"/>
<path d="M64.1465 3H81.4701" stroke="white" stroke-linecap="round"/>
<path d="M64.1465 13.0001H81.4701" stroke="white" stroke-linecap="round"/>
<path d="M64 7.99994H81.3235" stroke="white" stroke-linecap="round"/>
</svg>
